<svg width="123" height="15" fill="none" xmlns="http://www.w3.org/2000/svg"><path d="M67.738 14.48v-14h2.74l5.08 8.28-1.78-.02 5.16-8.26h2.64v14h-2.94V9.74c0-1.213.027-2.307.08-3.28a33.96 33.96 0 01.32-2.88l.34.94-4.1 6.34h-1.34l-4-6.3.32-.98c.16.893.267 1.813.32 2.76.067.947.1 2.08.1 3.4v4.74h-2.94zM55.843 14.48v-14h9.44v2.64h-6.5v8.72h6.64v2.64h-9.58zm1.4-5.86V6.06h7.08v2.56h-7.08zM48.566 14.68c-1.306 0-2.427-.233-3.36-.7-.92-.48-1.713-1.173-2.38-2.08l1.88-2.12c.653.907 1.3 1.527 1.94 1.86a4.71 4.71 0 002.1.48c.413 0 .78-.06 1.1-.18.334-.12.594-.287.78-.5.2-.213.3-.46.3-.74 0-.213-.047-.406-.14-.58a1.38 1.38 0 00-.4-.48 2.567 2.567 0 00-.62-.38c-.24-.12-.506-.22-.8-.3-.293-.08-.613-.153-.96-.22a9.694 9.694 0 01-1.96-.62 4.907 4.907 0 01-1.4-.92 3.526 3.526 0 01-.84-1.24 4.682 4.682 0 01-.26-1.6c0-.826.233-1.546.7-2.16.467-.626 1.087-1.113 1.86-1.46.773-.36 1.627-.54 2.56-.54 1.267 0 2.307.214 3.12.64a5.056 5.056 0 011.98 1.8l-1.92 1.88c-.413-.573-.886-1.006-1.42-1.3a3.513 3.513 0 00-1.72-.44c-.427 0-.806.06-1.14.18-.32.107-.567.274-.74.5-.173.214-.26.467-.26.76 0 .24.06.454.18.64.12.187.287.354.5.5.227.134.5.254.82.36.32.107.673.194 1.06.26a9.878 9.878 0 011.98.6c.587.24 1.087.534 1.5.88.427.347.753.747.98 1.2.227.454.34.96.34 1.52 0 .947-.227 1.754-.68 2.42-.453.667-1.08 1.18-1.88 1.54-.8.36-1.733.54-2.8.54zM35.664 14.6c-1.133 0-2.147-.233-3.04-.7a5.451 5.451 0 01-2.08-1.96c-.506-.84-.76-1.787-.76-2.84V.46h3v8.46c0 .56.127 1.067.38 1.52.267.44.62.793 1.06 1.06.44.267.92.4 1.44.4a2.8 2.8 0 001.48-.4 2.943 2.943 0 001.46-2.58V.46h2.9V9.1c0 1.053-.253 2-.76 2.84a5.303 5.303 0 01-2.06 1.96c-.88.467-1.886.7-3.02.7zM20.889 14.68a7.48 7.48 0 01-2.86-.54 6.905 6.905 0 01-2.26-1.5 7.25 7.25 0 01-1.48-2.3c-.347-.88-.52-1.846-.52-2.9 0-1.04.173-2 .52-2.88.36-.88.853-1.646 1.48-2.3a6.753 6.753 0 012.26-1.52 7.48 7.48 0 012.86-.54c1.026 0 1.966.18 2.82.54.866.36 1.62.867 2.26 1.52a6.777 6.777 0 011.48 2.32c.36.88.54 1.834.54 2.86 0 1.04-.18 2-.54 2.88a6.755 6.755 0 01-3.74 3.82c-.854.36-1.794.54-2.82.54zm0-2.84a4.04 4.04 0 001.62-.32c.493-.226.92-.533 1.28-.92.373-.4.66-.866.86-1.4.2-.533.3-1.12.3-1.76 0-.626-.1-1.206-.3-1.74-.2-.533-.487-1-.86-1.4-.36-.4-.787-.706-1.28-.92a3.834 3.834 0 00-1.62-.34 3.97 3.97 0 00-1.64.34c-.494.214-.927.52-1.3.92-.36.387-.64.854-.84 1.4-.2.534-.3 1.12-.3 1.76 0 .84.173 1.594.52 2.26.36.653.84 1.173 1.44 1.56.613.373 1.32.56 2.12.56zM8.84 14.48v-14h3v14h-3zm-8.84 0v-14h3v14H0zm1.22-5.6V6.12h9.14v2.76H1.22zM110.2 14.48v-14h5.76c1.014 0 1.94.174 2.78.52.84.334 1.56.814 2.16 1.44.6.614 1.06 1.354 1.38 2.22.32.854.48 1.794.48 2.82 0 1.04-.16 1.987-.48 2.84a6.438 6.438 0 01-1.38 2.22 6.394 6.394 0 01-2.16 1.44c-.826.334-1.753.5-2.78.5h-5.76zm3-2.2l-.32-.5h2.98c.6 0 1.134-.1 1.6-.3.48-.2.887-.486 1.22-.86.347-.386.607-.84.78-1.36.174-.533.26-1.126.26-1.78 0-.653-.086-1.24-.26-1.76a3.595 3.595 0 00-.78-1.36 3.222 3.222 0 00-1.22-.88c-.466-.2-1-.3-1.6-.3h-3.04l.38-.46v9.56z" fill="black"/><path fill-rule="evenodd" clip-rule="evenodd" d="M90.3 0a7.48 7.48 0 00-2.86.54c-.867.36-1.62.86-2.26 1.5a7.251 7.251 0 00-1.48 2.3c-.347.88-.52 1.847-.52 2.9 0 1.04.173 2 .52 2.88.36.88.853 1.647 1.48 2.3a6.754 6.754 0 002.26 1.52c.88.36 1.833.54 2.86.54 1.026 0 1.966-.18 2.82-.54a6.754 6.754 0 002.26-1.52 6.778 6.778 0 001.48-2.32 7.478 7.478 0 00.54-2.845h.02V7.22c0-.84.173-1.593.52-2.26.36-.653.84-1.173 1.44-1.56.613-.373 1.32-.56 2.12-.56.587 0 1.127.107 1.62.32.493.227.92.533 1.28.92.373.4.66.867.86 1.4.2.533.3 1.12.3 1.76 0 .627-.1 1.207-.3 1.74-.2.533-.487 1-.86 1.4-.36.4-.787.707-1.28.92a3.832 3.832 0 01-1.62.34 3.971 3.971 0 01-1.625-.333 8.396 8.396 0 01-1.511 2.511c.09.043.182.083.276.122.88.36 1.833.54 2.86.54s1.967-.18 2.82-.54a6.75 6.75 0 002.26-1.52 6.782 6.782 0 001.48-2.32c.36-.88.54-1.833.54-2.86 0-1.04-.18-2-.54-2.88a6.75 6.75 0 00-3.74-3.82c-.853-.36-1.793-.54-2.82-.54a7.48 7.48 0 00-2.86.54c-.867.36-1.62.86-2.26 1.5a7.251 7.251 0 00-1.48 2.3c-.347.88-.52 1.847-.52 2.9 0 .08 0 .16.003.24h-.028a4.822 4.822 0 01-.295 1.5c-.2.533-.487 1-.86 1.4-.36.4-.787.707-1.28.92a3.834 3.834 0 01-1.62.34 3.97 3.97 0 01-1.64-.34 3.856 3.856 0 01-1.3-.92 4.087 4.087 0 01-.84-1.4c-.2-.533-.3-1.12-.3-1.76 0-.84.173-1.593.52-2.26.36-.653.84-1.173 1.44-1.56.613-.373 1.32-.56 2.12-.56.586 0 1.126.107 1.62.32A9.771 9.771 0 0193.417.671 7.292 7.292 0 0093.12.54C92.266.18 91.326 0 90.3 0z" fill="black"/></svg>