<svg width="26" height="15" fill="none" xmlns="http://www.w3.org/2000/svg"><path fill-rule="evenodd" clip-rule="evenodd" d="M7.282 0c-1.05 0-2.025.186-2.925.56a7.057 7.057 0 00-2.311 1.553A7.524 7.524 0 00.532 4.496C.177 5.407 0 6.409 0 7.5c0 1.077.177 2.072.532 2.983a7.524 7.524 0 001.514 2.383 6.903 6.903 0 002.311 1.575c.9.372 1.875.559 2.925.559 1.05 0 2.012-.187 2.885-.56a6.903 6.903 0 002.311-1.574 7.03 7.03 0 001.514-2.403c.366-.907.55-1.89.552-2.947h.021v-.037c0-.87.177-1.65.532-2.34a4.404 4.404 0 011.473-1.617c.627-.387 1.35-.58 2.168-.58.6 0 1.152.11 1.657.331a4.12 4.12 0 011.31.954c.381.414.674.897.879 1.45.204.552.307 1.16.307 1.823 0 .65-.103 1.25-.307 1.802a4.336 4.336 0 01-.88 1.45 3.74 3.74 0 01-1.309.954 3.879 3.879 0 01-1.657.352 4.019 4.019 0 01-1.662-.345 8.72 8.72 0 01-1.546 2.602c.093.043.187.085.283.126.9.372 1.875.559 2.925.559 1.05 0 2.012-.187 2.884-.56a6.903 6.903 0 002.312-1.574 7.032 7.032 0 001.514-2.403c.368-.912.552-1.9.552-2.963 0-1.077-.184-2.072-.552-2.983a7.076 7.076 0 00-1.514-2.383A6.904 6.904 0 0021.622.559C20.75.186 19.788 0 18.738 0c-1.05 0-2.025.186-2.925.56A7.057 7.057 0 0013.5 2.112a7.523 7.523 0 00-1.513 2.383c-.355.911-.532 1.913-.532 3.004 0 .083 0 .166.003.249h-.03a5.05 5.05 0 01-.3 1.553 4.338 4.338 0 01-.88 1.45 3.739 3.739 0 01-1.31.954 3.879 3.879 0 01-1.657.352c-.6 0-1.159-.117-1.677-.352a3.945 3.945 0 01-1.33-.953 4.244 4.244 0 01-.859-1.45 5.214 5.214 0 01-.307-1.824c0-.87.178-1.65.532-2.34a4.404 4.404 0 011.473-1.617c.627-.387 1.35-.58 2.168-.58.6 0 1.153.11 1.657.331.397-.958.908-1.818 1.532-2.578a7.39 7.39 0 00-.304-.136C9.294.186 8.332 0 7.282 0z" fill="black"/></svg>